<svg width="100" height="100" viewBox="0 0 100 100" fill="none" xmlns="http://www.w3.org/2000/svg">
<path d="M26.3575 9.39287L9.3925 26.3606C7.85641 27.8969 7 29.9634 7 32.1252V89.9212C7 92.1784 8.82156 94 11.0781 94H89.9219C92.1784 94 94 92.1784 94 89.9212V11.0788C94 8.82185 92.1784 7 89.9219 7H32.1348C29.9734 7 27.8936 7.85654 26.3711 9.39287H26.3575Z" fill="url(#paint0_radial_2254_154)"/>
<path d="M67.1276 64.9989H60V37H79V43.5199H67.1276V48.5162H78.317V54.8739H67.1276V65V64.9989Z" fill="#E6E8EA"/>
<path d="M65.6271 61.9991H60V40H75V45.1228H65.6271V49.0484H74.4608V54.0438H65.6271V62V61.9991Z" fill="black"/>
<path opacity="0.05" d="M61.6044 53.657H68.7801C67.7184 61.0724 61.4847 65.9765 53.9323 65.9765C45.6617 65.9765 38.9281 59.7769 38.9281 51.4285C38.9108 49.487 39.2871 47.5622 40.0342 45.7711C40.7813 43.9801 41.8837 42.36 43.2742 41.0095C46.1283 38.2369 49.9595 36.7087 53.9323 36.758C61.4149 36.758 67.8227 41.7 68.7338 48.9967H61.5653C59.41 40.7314 45.9793 41.5396 45.9793 51.4285C45.9793 61.3185 59.5783 62.0471 61.6044 53.6594V53.657Z" fill="#002447"/>
<path d="M57.636 52.7245C56.6876 55.8655 53.3118 57.7332 49.989 56.951C46.6644 56.1662 44.5812 53.0162 45.2713 49.8143C45.9606 46.6115 49.1757 44.5013 52.5532 45.0356C53.9369 45.2193 55.2128 45.8676 56.1636 46.8701C56.8207 47.5332 57.3138 48.3354 57.605 49.2147H62.9662C62.2642 43.7085 57.3138 40.0009 51.5628 40.0009C48.5017 39.9628 45.5494 41.1128 43.3497 43.2002C42.2777 44.2173 41.428 45.4375 40.8522 46.7867C40.2764 48.136 39.9866 49.5859 40.0005 51.0483C40.0005 57.3341 45.1581 62 51.5646 62C57.3786 62 62.1675 58.3077 63 52.7245H57.6351H57.636Z" fill="#0C0C0C"/>
<path opacity="0.05" d="M38.511 61.6454H28.4359L26.7889 65.8791H19.0789L30.878 36.7188H36.0203L48.2887 65.8885H40.1485L38.5086 61.6454H38.511ZM31.2998 54.4272L31.0474 55.0857H35.9386L35.7692 54.5913L33.4918 48.3382L31.2998 54.4272Z" fill="#002447"/>
<path d="M39.2873 58.7998H31.3675L30.0716 61.9929H24L33.2913 40H37.3403L47 62H40.5934L39.2873 58.7998ZM33.6225 53.3558L33.4247 53.8525H37.2759L37.1415 53.4795L35.3493 48.7635L33.6234 53.3558H33.6225Z" fill="#0C0C0C"/>
<defs>
<radialGradient id="paint0_radial_2254_154" cx="0" cy="0" r="1" gradientUnits="userSpaceOnUse" gradientTransform="translate(7 7) rotate(45) scale(123.036)">
<stop stop-color="#F2F2F2"/>
<stop offset="1" stop-color="#F2F2F2"/>
</radialGradient>
</defs>
</svg>
