<svg width="100" height="100" viewBox="0 0 100 100" fill="none" xmlns="http://www.w3.org/2000/svg">
<path d="M94.2 0L86.2 90L50 100L14 90L6 0H94.2Z" fill="#F2F2F2"/>
<path d="M79.3 84.2999L86.1999 7.3999H50.2V92.3999L79.3 84.2999Z" fill="white"/>
<path d="M24.4 40.7L25.4 51.7H50.1V40.7H24.4Z" fill="#0C0C0C"/>
<path d="M50.1 18.3999H22.4L23.4 29.3999H50.1V18.3999Z" fill="#0C0C0C"/>
<path d="M50.1 80.9001V69.4001L37.8 66.1L37 57.3H31H25.9L27.4 74.6L50.1 80.9001Z" fill="#0C0C0C"/>
<path d="M63.6 51.8L62.3 66.1L50 69.4001V80.9001L72.6 74.6L72.8 72.7L75.4 43.6L75.7 40.6L77.7 18.3H50V29.3H65.6L64.6 40.6H50V51.6H63.6V51.8Z" fill="black"/>
</svg>
