<svg width="100" height="99" viewBox="0 0 100 99" fill="none" xmlns="http://www.w3.org/2000/svg">
<path d="M87.852 7L80.972 84.4L49.84 93L18.88 84.4L12 7H87.852Z" fill="#F2F2F2"/>
<path d="M75.038 79.4978L80.972 13.3638H50.012V86.4638L75.038 79.4978Z" fill="white"/>
<path d="M27.824 42.002L28.684 51.462H49.926V42.002H27.824Z" fill="#0C0C0C"/>
<path d="M49.926 22.8237H26.104L26.964 32.2837H49.926V22.8237Z" fill="#0C0C0C"/>
<path d="M49.926 76.5738V66.6838L39.348 63.8458L38.66 56.2778H33.5H29.114L30.404 71.1558L49.926 76.5738Z" fill="#0C0C0C"/>
<path d="M61.536 51.5478L60.418 63.8458L49.84 66.6838V76.5738L69.276 71.1558L69.448 69.5218L71.684 44.4958L71.942 41.9158L73.662 22.7378H49.84V32.1978H63.256L62.396 41.9158H49.84V51.3758H61.536V51.5478Z" fill="black"/>
</svg>
