<svg width="100" height="100" viewBox="0 0 100 100" fill="none" xmlns="http://www.w3.org/2000/svg">
<path d="M30.9619 85.9999C38.8739 85.9999 45.3239 79.55 45.3239 71.638V57.3621H30.9619C23.05 57.3621 16.6 63.812 16.6 71.724C16.6 79.636 23.05 85.9999 30.9619 85.9999Z" fill="#F2F2F2"/>
<path d="M16.6865 42.9999C16.6865 35.0879 23.1365 28.6379 31.0485 28.6379H45.3244V57.2758H30.9625C23.0505 57.3618 16.6865 50.9118 16.6865 42.9999Z" fill="#F2F2F2"/>
<path d="M16.6865 14.3619C16.6865 6.44997 23.0505 0 30.9625 0H45.3244V28.6379H30.9625C23.0505 28.6379 16.6865 22.2739 16.6865 14.3619Z" fill="#F2F2F2"/>
<path d="M45.3241 0H59.686C67.598 0 74.048 6.44997 74.048 14.3619C74.048 22.2739 67.598 28.7239 59.686 28.7239H45.3241V0Z" fill="#F2F2F2"/>
<path d="M73.962 42.9999C73.962 50.9118 67.512 57.3618 59.6 57.3618C51.6881 57.3618 45.3241 50.9118 45.3241 42.9999C45.3241 35.0879 51.7741 28.6379 59.686 28.6379C67.598 28.6379 73.962 35.0879 73.962 42.9999Z" fill="#F2F2F2"/>
</svg>
