<svg width="100" height="100" viewBox="0 0 100 100" fill="none" xmlns="http://www.w3.org/2000/svg">
<rect x="7" y="7" width="86" height="86" fill="white"/>
<path d="M17.4155 38.1552C18.131 38.0899 18.5279 38.0324 18.9274 38.022C25.5811 37.8549 25.4662 37.8261 27.0982 31.2195C27.8399 28.2165 28.8687 25.2135 30.2605 22.4585C32.6107 17.8104 36.5904 15.0032 41.6537 13.7446C47.4143 12.3135 55.5094 12.9768 60.8991 15.4628C59.7972 19.3067 58.6795 23.2001 57.5671 27.0649C44.4243 24.3308 40.8756 26.5818 40.2306 37.975H53.9844C53.2349 41.6569 52.6239 45.0595 51.7726 48.402C51.6499 48.8877 50.3755 49.342 49.6235 49.3603C45.905 49.4569 42.1812 49.4047 38.1258 49.4047C35.4283 62.2629 32.7517 75.0296 30.0334 88H15.2429C17.8672 75.2646 20.4916 62.537 23.1839 49.4726H15C15.8408 45.5321 16.6086 41.9363 17.4155 38.1525V38.1552Z" fill="black"/>
<path d="M63.0691 70.3262C62.0716 68.1562 57.7733 68.3337 58.9745 64.5865C59.9695 61.4895 62.9202 63.5837 64.7194 62.2911C64.1162 59.9488 59.8754 60.2439 60.6145 56.87C61.4109 53.2325 64.6933 55.3764 66.6544 54.0838C65.952 51.8746 61.8862 52.2062 62.4084 48.8507C63.0012 45.046 66.3985 47.2526 68.4092 45.8633C66.9234 43.7534 62.1055 42.7533 64.9257 39.194C66.0303 37.7996 69.2292 38.0607 72.4881 37.3452C69.5687 42.103 73.1984 42.8708 75.2039 44.6778C76.2667 45.6361 77.2512 46.9575 77.5959 48.2919C77.7369 48.8324 76.204 50.1015 75.2143 50.5585C74.2899 50.9841 73.0704 50.7726 71.8013 50.8536C72.5116 53.4335 76.6793 53.1332 75.9664 56.5723C75.1856 60.3405 71.7465 57.737 70.0126 59.3325C70.7359 61.6044 74.854 61.3223 74.2299 64.7092C73.5326 68.4852 70.2006 66.2186 68.2447 67.4328C68.8845 69.7595 73.0913 69.4148 72.4098 72.8382C71.6656 76.5646 68.2682 74.1857 66.174 75.8334C67.3047 76.6664 68.5581 77.2984 69.3807 78.2881C70.0335 79.0741 70.621 80.4293 70.3782 81.2937C70.1458 82.1293 68.8976 82.8422 67.9444 83.2652C67.1663 83.6099 66.1635 83.4559 65.2574 83.5055C62.4946 83.6569 59.7501 83.8214 60.5048 87.9943H53.6344C54.2246 85.6102 54.7625 83.3018 55.3683 81.0117C56.2457 77.7057 59.4785 80.0481 61.1968 78.6093C60.4734 76.327 56.3449 76.5855 57.1545 73.0602C57.9822 69.4566 61.3169 71.7754 63.0691 70.3314V70.3262Z" fill="black"/>
<path d="M74.1074 30.206C69.1876 30.1825 66.4719 27.7017 66.511 23.2599C66.5633 17.2538 70.6552 13.4309 77.0634 13.3995C81.6201 13.3786 84.6675 16.4104 84.6179 20.9201C84.55 27.0097 80.8994 30.2373 74.11 30.206H74.1074Z" fill="black"/>
</svg>
