<svg width="182" height="124" viewBox="0 0 182 124" fill="none" xmlns="http://www.w3.org/2000/svg">
<path d="M92.1465 49.7509C92.3493 49.5564 92.4679 49.2914 92.4772 49.0115H92.4811C92.6179 43.6838 91.3747 39.5224 88.7891 36.6415C86.0587 33.6008 81.8769 32.0394 76.3586 32C70.8503 32 66.1054 33.7069 62.6354 36.9364C59.3537 39.9925 57.5018 44.223 57.4185 48.8482C57.2777 56.8234 61.8204 61.8952 66.8866 66.8041C70.8086 70.8061 71.5284 72.7848 71.4888 75.0424C71.4412 77.6544 70.188 79.1529 68.0485 79.1529C67.1661 79.1529 66.4583 78.8812 65.9507 78.3463C65.1575 77.5205 64.8066 76.0277 64.9354 74.0298C64.957 73.8963 64.9494 73.7595 64.9131 73.6294C64.8976 73.5737 64.8771 73.5199 64.8518 73.4681C64.8178 73.3989 64.7753 73.3341 64.7252 73.2746C64.625 73.1492 64.4979 73.0474 64.3532 72.9769C64.2086 72.9058 64.0498 72.8679 63.8885 72.8655H52.3087C52.0263 72.8645 51.7547 72.973 51.5515 73.168C51.3483 73.3624 51.2295 73.6279 51.2201 73.9079C50.9484 79.4458 52.2492 83.7369 55.0867 86.6614C57.8825 89.5408 62.0861 91 67.5885 91C78.3633 91 85.444 84.3231 85.6284 73.9943C85.7414 67.6065 83.3918 62.7743 77.5285 57.3189C73.075 53.0356 71.5106 50.5417 71.5601 47.7982C71.6038 45.3379 73.0949 43.9296 75.4069 43.9296C77.7189 43.9296 78.8491 45.5069 78.8491 48.746C78.8491 49.4638 79.4618 50.0539 80.1954 50.0539H91.3906C91.6727 50.0543 91.9438 49.9454 92.1465 49.7509Z" fill="#F2F2F2"/>
<path d="M57.2122 59.5823V59.5569H57.2063C57.2162 59.022 56.8414 58.5322 56.31 58.4636C56.2644 58.4535 56.2149 58.4535 56.1672 58.4535H35.6845V58.477C35.155 58.5399 34.7248 58.8962 34.6196 59.3662L32.4861 68.5581C32.4578 68.682 32.4586 68.8107 32.4885 68.9341C32.5184 69.0575 32.5766 69.1727 32.6587 69.2702C32.7656 69.395 32.8986 69.4953 33.0486 69.564C33.1986 69.6327 33.362 69.6677 33.5272 69.6672H36.6481C36.8285 69.6672 37.0645 69.6932 37.1497 69.8031C37.2311 69.9092 37.2251 70.1474 37.1399 70.4542C36.5331 72.6629 35.0896 75.0837 33.2971 76.4838C31.5027 77.882 28.5403 78.7199 26.4642 77.4576C24.1226 76.0315 23.726 72.5918 23.6288 70.1455C23.4245 64.8903 24.4615 59.614 26.498 54.7564C27.9554 51.2792 30.7036 45.0056 35.3632 45.0056C38.0044 45.0056 39.3329 47.1687 39.432 51.6134C39.4344 51.7128 39.4549 51.8102 39.4917 51.9015C39.5328 52.0032 39.5943 52.0969 39.6736 52.1761C39.8237 52.3259 40.0261 52.4133 40.2391 52.4195H52.3939C52.6781 52.4195 52.9508 52.3091 53.1541 52.1122C53.3574 51.9154 53.4753 51.6475 53.4824 51.3656C53.4746 44.9384 51.9953 40.0299 49.0806 36.7693C46.3244 33.6872 42.3627 32.1436 37.3164 32.1868C20.7279 32.1868 12.1125 48.8108 10.2882 65.2859C9.27701 74.061 10.9465 81.3453 14.9876 85.7943C18.0451 89.1611 21.6499 90.866 26.9957 90.866C32.9461 90.866 37.3996 89.5562 41.0124 86.7479C45.2596 83.4497 48.4758 77.9569 50.8513 69.9644C50.8776 69.8761 50.932 69.7988 51.0063 69.7436C51.0806 69.6879 51.1709 69.6581 51.2637 69.6576H53.8394C54.4421 69.6576 54.9657 69.2778 55.0807 68.7588L57.2122 59.5823Z" fill="#F2F2F2"/>
<path fill-rule="evenodd" clip-rule="evenodd" d="M127.177 89.0569L127.25 34.1218C127.252 33.9844 127.227 33.8476 127.175 33.7199C127.152 33.6627 127.123 33.6075 127.09 33.5557C127.049 33.4918 127.002 33.4327 126.948 33.379C126.903 33.3334 126.854 33.2925 126.801 33.2565C126.74 33.2148 126.675 33.1792 126.606 33.1514C126.478 33.099 126.34 33.0726 126.201 33.0736H108.875C108.292 33.0736 108.037 33.571 107.87 33.8994L82.783 88.7203V88.7304L82.7731 88.7443C82.4955 89.4184 83.0229 90.1405 83.7585 90.1405H95.8698C96.5241 90.1405 96.9584 89.9437 97.1705 89.5346L99.5757 83.8017C99.8711 83.0368 99.9267 82.9658 100.767 82.9658H112.339C113.144 82.9658 113.16 82.9816 113.148 83.7623L112.889 89.0924C112.888 89.151 112.892 89.2095 112.901 89.2672C112.913 89.3445 112.934 89.4203 112.964 89.4933C113.015 89.621 113.092 89.7367 113.19 89.8347C113.287 89.9322 113.404 90.0095 113.532 90.0618C113.66 90.1146 113.797 90.141 113.935 90.1405H126.172C126.323 90.1425 126.473 90.1113 126.611 90.0493C126.749 89.9874 126.872 89.8966 126.971 89.7824C127.056 89.6834 127.118 89.5673 127.154 89.4419C127.19 89.3166 127.197 89.1855 127.177 89.0569ZM105.742 70.7159C105.651 70.7159 105.56 70.713 105.469 70.7058C105.426 70.7024 105.385 70.6895 105.348 70.6688C105.311 70.6477 105.279 70.6189 105.255 70.5843C105.243 70.568 105.233 70.5502 105.225 70.532C105.216 70.5118 105.21 70.4907 105.206 70.4691C105.202 70.4455 105.2 70.422 105.202 70.3985C105.203 70.3798 105.206 70.3615 105.211 70.3438C105.225 70.2986 105.242 70.2439 105.263 70.18C105.279 70.133 105.297 70.0811 105.318 70.0254L113.995 48.7301C114.073 48.5203 114.163 48.3148 114.265 48.1146C114.405 47.8274 114.576 47.8078 114.629 48.0205C114.675 48.1972 113.634 69.8857 113.634 69.8857C113.553 70.6981 113.515 70.7312 112.708 70.7985L105.75 70.7197H105.734L105.742 70.7159Z" fill="#F2F2F2"/>
<path fill-rule="evenodd" clip-rule="evenodd" d="M142.661 33.0736H151.859L151.869 33.0678C165.436 33.0678 172.209 39.1666 171.995 51.2024C171.745 65.3056 163.08 75.67 150.033 78.0592C148.179 78.3977 146.293 78.5292 144.41 78.5196L138.11 78.4918C138.007 78.4913 137.908 78.5312 137.833 78.6022C137.759 78.6738 137.716 78.7712 137.714 78.8735C137.712 78.9426 137.731 79.0108 137.767 79.0699C137.803 79.1289 137.855 79.177 137.918 79.2077L138.685 79.6033L140.668 80.6299L142.661 81.6583C142.867 81.7649 143.073 81.8715 143.28 81.9767C143.72 82.2052 143.89 82.5826 143.791 83.0704L142.395 89.3185C142.28 89.8395 141.858 90.1405 141.239 90.1405H129.743C129.578 90.1405 129.415 90.105 129.265 90.0364C129.116 89.9677 128.983 89.8678 128.876 89.7435C128.794 89.6455 128.735 89.5303 128.705 89.4064C128.675 89.2825 128.674 89.1539 128.702 89.0295L141.503 33.9038C141.63 33.3295 142.175 33.0736 142.661 33.0736ZM148.483 65.8779H148.728C154.766 65.636 158.058 58.5596 158.179 51.694C158.248 47.7276 156.789 45.4046 154.171 45.3259H145.762C145.66 45.3259 145.562 45.3653 145.489 45.4358C145.416 45.5064 145.374 45.6025 145.371 45.7038C145.37 45.7729 145.388 45.8416 145.423 45.9011C145.458 45.9611 145.51 46.0096 145.572 46.0418C145.572 46.0418 150.89 48.8228 151.255 49.0235C151.54 49.1786 151.544 49.4422 151.451 49.9007C151.45 49.9108 150.636 53.459 149.779 57.2003C148.822 61.3756 147.811 65.792 147.816 65.7992C147.832 65.8189 147.929 65.8779 148.483 65.8779Z" fill="#F2F2F2"/>
</svg>
