<svg width="100" height="99" viewBox="0 0 100 99" fill="none" xmlns="http://www.w3.org/2000/svg">
<path d="M93.0833 6H6V93.0833H93.0833V6Z" fill="#F2F2F2"/>
<path d="M64.52 74.0124C66.2617 76.8861 68.5259 78.9761 72.6188 78.9761C76.015 78.9761 78.1921 77.3215 78.1921 74.9703C78.1921 72.1836 75.928 71.1386 72.2705 69.5711L70.2675 68.7003C64.3459 66.1749 60.4271 63.0399 60.4271 56.3345C60.4271 50.2386 65.1296 45.5361 72.4446 45.5361C77.6696 45.5361 81.4142 47.3649 84.1138 52.0674L77.7567 56.1603C76.3634 53.6349 74.883 52.677 72.5317 52.677C70.0934 52.677 68.613 54.1574 68.613 56.1603C68.613 58.5986 70.0934 59.6436 73.6638 61.124L75.6667 61.9949C82.6334 64.9557 86.5521 68.0036 86.5521 74.8832C86.5521 82.2853 80.8046 86.2911 72.9671 86.2911C65.3909 86.2911 60.4271 82.6336 58.0759 77.9311L64.52 74.0124ZM35.6084 74.709C36.9146 76.9732 38.0467 78.889 40.8334 78.889C43.533 78.889 45.1875 77.844 45.1875 73.7511V45.8845H53.3734V73.9253C53.3734 82.3724 48.4096 86.2911 41.1817 86.2911C34.6505 86.2911 30.8188 82.8949 28.903 78.802L35.6084 74.709Z" fill="black"/>
</svg>
