<svg width="127" height="127" viewBox="0 0 127 127" fill="none" xmlns="http://www.w3.org/2000/svg">
<path d="M107.083 20H20V107.083H107.083V20Z" fill="#F2F2F2"/>
<path d="M78.52 88.0121C80.2617 90.8859 82.5259 92.9759 86.6188 92.9759C90.015 92.9759 92.1921 91.3213 92.1921 88.97C92.1921 86.1834 89.928 85.1384 86.2705 83.5709L84.2675 82.7001C78.3459 80.1746 74.4271 77.0396 74.4271 70.3342C74.4271 64.2384 79.1296 59.5359 86.4446 59.5359C91.6696 59.5359 95.4142 61.3646 98.1138 66.0671L91.7567 70.1601C90.3634 67.6346 88.883 66.6767 86.5317 66.6767C84.0934 66.6767 82.613 68.1571 82.613 70.1601C82.613 72.5984 84.0934 73.6434 87.6638 75.1238L89.6667 75.9946C96.6334 78.9555 100.552 82.0034 100.552 88.883C100.552 96.2851 94.8046 100.291 86.9671 100.291C79.3909 100.291 74.4271 96.6334 72.0759 91.9309L78.52 88.0121ZM49.6084 88.7088C50.9146 90.973 52.0467 92.8888 54.8334 92.8888C57.533 92.8888 59.1875 91.8438 59.1875 87.7509V59.8842H67.3734V87.9251C67.3734 96.3721 62.4096 100.291 55.1817 100.291C48.6505 100.291 44.8188 96.8946 42.903 92.8017L49.6084 88.7088Z" fill="black"/>
</svg>
