<?xml version="1.0" encoding="UTF-8"?>
<svg version="1.1" xmlns="http://www.w3.org/2000/svg" width="512" height="512">
<path d="M0 0 C4.8846525 2.26787438 7.73212562 5.1153475 10 10 C10.73924067 15.49150214 11.05971725 20.11146719 8.296875 25.03515625 C5.94673082 28.06876072 3.48438385 30.74608504 0.75 33.4375 C0.26257324 33.91848145 -0.22485352 34.39946289 -0.72705078 34.89501953 C-3.96729842 38.06702899 -7.32383092 41.05363375 -10.7734375 43.9921875 C-13.79581823 46.71763258 -16.63918004 49.60666148 -19.5 52.5 C-23.48776282 56.53298837 -27.51494911 60.39402467 -31.84375 64.0625 C-34.84614683 66.76030585 -37.66260817 69.63043819 -40.5 72.5 C-44.48776831 76.5329811 -48.51494905 80.39402462 -52.84375 84.0625 C-55.84614683 86.76030585 -58.66260817 89.63043819 -61.5 92.5 C-65.48776831 96.5329811 -69.51494905 100.39402462 -73.84375 104.0625 C-76.84614683 106.76030585 -79.66260817 109.63043819 -82.5 112.5 C-86.48383101 116.52899916 -90.50532988 120.38830696 -94.83203125 124.05078125 C-98.48849065 127.33830061 -101.90829978 130.86848258 -105.34570312 134.3828125 C-105.87486328 134.92035156 -106.40402344 135.45789063 -106.94921875 136.01171875 C-107.41674561 136.49084717 -107.88427246 136.96997559 -108.3659668 137.46362305 C-110.47306792 139.44479552 -112.73580857 141.20217031 -115 143 C-114.31882012 143.00059709 -113.63764024 143.00119418 -112.93581855 143.00180936 C-72.57766983 143.03769101 -32.21959798 143.09431104 8.13848133 143.17792095 C12.98262006 143.1879386 17.82675913 143.1977827 22.67089844 143.20751953 C24.1174905 143.21043159 24.1174905 143.21043159 25.59330665 143.21340248 C41.21561099 143.24443691 56.83790064 143.26140716 72.46023001 143.27319422 C88.48613683 143.28559831 104.51196643 143.3130829 120.53782451 143.35461307 C130.42935774 143.37976975 140.32076293 143.3931157 150.2123286 143.39142957 C156.99222431 143.39139985 163.77198945 143.40599755 170.5518343 143.43216428 C174.4654742 143.44683489 178.37884631 143.45499223 182.29250908 143.44580269 C185.87544802 143.43753194 189.45784829 143.44762525 193.04070722 143.47233662 C194.95099146 143.48073174 196.86133084 143.46946362 198.77159607 143.45750165 C205.13901203 143.52160564 209.20053265 143.63825093 214 148 C217.62833663 151.81930172 218.31000458 154.88279006 218.5 160 C218.31000458 165.11720994 217.62833663 168.18069828 214 172 C208.30262601 177.17776534 202.43075642 176.56541179 195.0161438 176.51898193 C193.6786464 176.52485983 192.34115575 176.53248826 191.00367725 176.541713 C187.33440622 176.56196669 183.66552195 176.55742124 179.99622059 176.54880548 C176.03714453 176.54386117 172.07816567 176.56194486 168.11912537 176.57722473 C161.2618398 176.60054189 154.40466 176.60928506 147.54733658 176.60811615 C137.63283699 176.6064472 127.71847843 176.62677865 117.80401646 176.65247145 C101.71830951 176.69355962 85.63262792 176.71686719 69.546875 176.72900391 C53.92152468 176.74083131 38.29622211 176.76102594 22.67089844 176.79248047 C21.70767521 176.79441657 20.74445198 176.79635267 19.75204016 176.79834744 C14.91980867 176.80811199 10.08757753 176.8180411 5.25534654 176.82805204 C-34.82974628 176.9108835 -74.91483866 176.96486335 -115 177 C-113.2502642 178.76329818 -111.49871758 180.52473245 -109.74609375 182.28515625 C-109.25443726 182.7810022 -108.76278076 183.27684814 -108.25622559 183.78771973 C-105.60752015 186.4452505 -102.926652 189.01348887 -100.0625 191.4375 C-95.95573465 194.93710497 -92.21275194 198.75982009 -88.42431641 202.59521484 C-85.09433671 205.95044557 -81.66077511 209.09717875 -78.05859375 212.16015625 C-74.92769719 214.95835792 -72.01170305 217.96773656 -69.06396484 220.95556641 C-66.47977682 223.56120739 -63.85790842 226.06053109 -61.0625 228.4375 C-56.95573465 231.93710497 -53.21275194 235.75982009 -49.42431641 239.59521484 C-46.09433671 242.95044557 -42.66077511 246.09717875 -39.05859375 249.16015625 C-35.92769719 251.95835792 -33.01170305 254.96773656 -30.06396484 257.95556641 C-27.47977682 260.56120739 -24.85790842 263.06053109 -22.0625 265.4375 C-17.95860621 268.93465795 -14.21616835 272.75309949 -10.43310547 276.58862305 C-7.61067158 279.43568941 -4.74995636 282.1573185 -1.6875 284.75 C9.67339406 294.42339724 9.67339406 294.42339724 10.23828125 300.609375 C10.49029126 311.27337762 10.49029126 311.27337762 6 316 C2.18069828 319.62833663 -0.88279006 320.31000458 -6 320.5 C-14.45148847 320.16693641 -18.32527995 315.83749463 -23.94921875 310.0546875 C-25.79781169 308.20257343 -27.69134209 306.50187996 -29.6875 304.8125 C-33.48335728 301.55569937 -36.98622176 298.0538727 -40.5 294.5 C-43.91069262 291.05060998 -47.29621585 287.63880013 -51 284.5 C-55.32418706 280.8354347 -59.24082291 276.78479134 -63.22265625 272.7578125 C-66.06641577 269.89425883 -68.91875084 267.1112281 -72 264.5 C-76.32418706 260.8354347 -80.24082291 256.78479134 -84.22265625 252.7578125 C-87.06641577 249.89425883 -89.91875084 247.1112281 -93 244.5 C-97.32418706 240.8354347 -101.24082291 236.78479134 -105.22265625 232.7578125 C-108.06641577 229.89425883 -110.91875084 227.1112281 -114 224.5 C-118.32418706 220.8354347 -122.24082291 216.78479134 -126.22265625 212.7578125 C-129.63909949 209.31758891 -133.13957778 206.07602646 -136.83984375 202.94140625 C-140.46815143 199.68052213 -143.852999 196.17307236 -147.27539062 192.69848633 C-150.0788423 189.86668791 -152.87850898 187.17376418 -156 184.6875 C-161.26348272 180.33826986 -164.21552553 174.5090082 -166 168 C-166.92896455 157.6733708 -166.65397688 148.21903105 -160.234375 139.640625 C-156.60158814 135.37853647 -152.60294226 131.68354889 -148.33203125 128.078125 C-145.26058702 125.34109262 -142.38983703 122.4265216 -139.5 119.5 C-135.51254032 115.46673345 -131.48502121 111.60595018 -127.15625 107.9375 C-124.15385317 105.23969415 -121.33739183 102.36956181 -118.5 99.5 C-114.51223169 95.4670189 -110.48505095 91.60597538 -106.15625 87.9375 C-103.15385317 85.23969415 -100.33739183 82.36956181 -97.5 79.5 C-93.51223169 75.4670189 -89.48505095 71.60597538 -85.15625 67.9375 C-82.15385317 65.23969415 -79.33739183 62.36956181 -76.5 59.5 C-72.51223169 55.4670189 -68.48505095 51.60597538 -64.15625 47.9375 C-61.15385317 45.23969415 -58.33739183 42.36956181 -55.5 39.5 C-51.51223169 35.4670189 -47.48505095 31.60597538 -43.15625 27.9375 C-40.15383845 25.23968093 -37.33758725 22.36938884 -34.5 19.5 C-29.83278502 14.78539874 -25.099169 10.2512434 -20 6 C-19.42378906 5.50757812 -18.84757813 5.01515625 -18.25390625 4.5078125 C-12.27682285 -0.5662583 -7.75015603 -0.72023701 0 0 Z " fill="#000000" transform="translate(230,96)"/>
</svg>
