<svg width="100" height="100" viewBox="0 0 100 100" fill="none" xmlns="http://www.w3.org/2000/svg">
<path d="M17.7 1.19995H82.3C92.1 1.19995 100 9.09995 100 18.9V81C100 90.8 92.1 98.7 82.3 98.7H17.7C7.9 98.7 0 90.8 0 81V19C0 9.19995 7.9 1.19995 17.7 1.19995Z" fill="#F2F2F2"/>
<path d="M35.8 26C34.6 26 33.3 26 32 26C30.7 26 29.5 26 28.4 26C27.3 26 26.2 26 25.2 26C24.2 26 23.6 26 22.9 26C22.2 26 22.5 26.2 22.5 26.5V69.4C22.5 69.8 22.7 69.9 23 69.9H31.1C31.4 69.9 31.6 69.6 31.6 69.3V55.9C32.4 55.9 33 55.9 33.4 55.9C33.8 55.9 34.5 55.9 35.5 55.9C38.9 55.9 42 55.5 44.9 54.5C47.6 53.5 49.9 51.7 51.6 49.4C53.3 47.1 54.1 44.1 54.1 40.5C54.1 36.9 53.8 36.7999 53.1 35.0999C52.4 33.2999 51.4 31.6999 50.1 30.4C48.5 28.9 46.6 27.7 44.5 27C42.2 26.1 39.3 25.7 35.9 25.7L35.8 26ZM36.8 34.2C38.3 34.2 39.7 34.5 41.1 35C42.3 35.5 43.3 36.3 44 37.4C44.7 38.5 45 39.7999 45 41.0999C45 42.8999 44.6 44.3 43.7 45.4C42.8 46.4 41.6 47.1999 40.3 47.5999C38.8 48.0999 37.1 48.2999 35.5 48.2999H33.3C32.8 48.2999 32.3 48.2999 31.7 48.2999V34.2999C32 34.2999 32.6 34.2999 33.4 34.2999C34.2 34.2999 35.1 34.2999 36.2 34.2999C36.4 34.2999 36.6 34.2999 36.8 34.2999V34.2ZM71.7 36.4C68.7 36.4 66.3 36.9 64.3 37.9C62.5 38.7 61 40.1 59.9 41.7C59 43.2 58.5 44.9 58.5 46.7C58.5 48.2 58.8 49.6 59.5 50.9C60.3 52.3 61.4 53.5 62.7 54.4C64.5 55.7 66.5 56.7 68.6 57.4C70.6 58.2 72 58.8 72.7 59.4C73.4 59.9 73.7 60.4999 73.7 61.0999C73.7 61.6999 73.2 62.6 72.6 62.9C71.8 63.3 70.7 63.5 69.1 63.5C67.5 63.5 65.8 63.3 64.2 62.9C62.4 62.5 60.6 61.8 59 60.9C58.9 60.9 58.8 60.8 58.6 60.9C58.5 60.9 58.4 61.0999 58.4 61.2999V68.5999C58.4 68.8999 58.6 69.2 58.9 69.4C60.3 70 61.7 70.4999 63.1 70.6999C65 71.0999 66.8 71.1999 68.8 71.1999C71.8 71.1999 74.3 70.7 76.3 69.9C78.2 69.1 79.8 67.8999 81 66.1999C82.1 64.5999 82.7 62.6 82.6 60.7C82.6 59.2 82.3 57.7 81.6 56.4C80.8 55 79.7 53.8 78.3 52.9C76.3 51.6 74.1 50.6 71.9 49.9C70.9 49.5 69.9 49 68.9 48.5C68.4 48.2 67.9 47.8 67.5 47.4C67.3 47.1 67.1 46.6999 67.1 46.2999C67.1 45.8999 67.2 45.5 67.4 45.2C67.7 44.8 68.2 44.5 68.7 44.4C69.5 44.2 70.4 44.0999 71.2 44.0999C72.8 44.0999 74.3 44.2999 75.9 44.5999C77.3 44.8999 78.7 45.4 79.9 46C80.1 46 80.3 46 80.7 46C80.7 46 80.8 45.8999 80.9 45.7999V45.5999V38.7999C80.9 38.5999 80.9 38.4999 80.9 38.2999C80.9 38.0999 80.7 38 80.5 37.9C79.4 37.4 78.1 37.1 76.9 36.9C75.2 36.7 73.5 36.5 71.7 36.5V36.4Z" fill="black"/>
</svg>
