<svg width="100" height="100" viewBox="0 0 100 100" fill="none" xmlns="http://www.w3.org/2000/svg">
<path d="M7 7H93V93H7V7Z" fill="#F2F2F2"/>
<path d="M48.28 38.8201H52.408V45.9581H41.228V77.6061L40.97 77.6921C40.54 77.7781 35.294 77.7781 34.09 77.6921L33.144 77.6061V45.9581H21.964V38.8201H25.49C27.382 38.8201 32.37 38.8201 36.498 38.8201C40.798 38.8201 46.044 38.8201 48.28 38.8201ZM79.756 74.3381C78.122 76.0581 76.316 77.0041 73.392 77.8641C72.102 78.2081 71.93 78.2081 69.006 78.2081C66.168 78.2081 65.91 78.2081 64.534 77.8641C60.922 76.9181 57.998 75.1121 56.02 72.5321C55.418 71.8441 54.558 70.2961 54.558 70.1241C54.558 70.0381 54.73 69.9521 54.902 69.8661C55.074 69.7801 55.418 69.5221 55.762 69.3501C56.02 69.1781 56.622 68.8341 56.966 68.6621C57.31 68.4901 58.342 67.8881 59.288 67.2861C60.234 66.7701 61.008 66.2541 61.094 66.2541C61.18 66.2541 61.352 66.4261 61.524 66.6841C62.298 68.0601 64.19 69.7801 65.566 70.3821C66.426 70.7261 68.232 71.1561 69.092 71.1561C69.866 71.1561 71.414 70.8121 72.188 70.4681C73.048 70.0381 73.478 69.6941 73.994 68.9201C74.338 68.4041 74.424 68.2321 74.338 67.2001C74.338 66.2541 74.252 65.9961 73.994 65.4801C73.22 64.2761 72.188 63.5881 68.06 61.7821C63.76 59.8901 61.868 58.7721 60.32 57.2241C59.202 56.1061 58.944 55.7621 58.17 54.3861C57.224 52.5801 57.138 51.9781 57.138 49.3121C57.138 47.4201 57.138 46.8181 57.396 46.1301C57.654 45.1841 58.6 43.2921 59.03 42.8621C59.89 41.8301 60.234 41.5721 60.836 41.0561C62.642 39.5081 65.48 38.5621 68.232 38.4761C68.576 38.4761 69.522 38.5621 70.554 38.5621C73.306 38.8201 75.198 39.4221 77.004 40.8841C78.38 41.9161 80.444 44.4961 80.186 44.8401C80.014 45.0121 74.682 48.6241 74.338 48.7101C74.166 48.7961 73.994 48.7101 73.65 48.3661C71.844 46.2161 71.07 45.7001 69.35 45.6141C68.06 45.5281 67.458 45.7001 66.598 46.2161C65.738 46.8181 65.308 47.6781 65.308 48.9681C65.308 50.7741 65.996 51.6341 68.576 52.9241C70.21 53.7841 71.672 54.3861 71.758 54.3861C71.93 54.3861 75.37 56.1061 76.23 56.6221C80.444 59.1161 82.164 61.6101 82.594 65.9961C82.68 69.1781 81.82 72.1881 79.756 74.3381Z" fill="black"/>
</svg>
