<svg width="140" height="140" viewBox="0 0 140 140" fill="none" xmlns="http://www.w3.org/2000/svg">
<path d="M32.9667 69.6784C32.9667 84.1923 41.5879 96.7425 54.0408 102.633L36.1888 54.7376C34.0988 59.4333 32.9667 64.5558 32.9667 69.6784ZM95.5796 67.8001C95.5796 63.2752 93.925 60.1163 92.5317 57.7258C90.6158 54.7376 88.8742 52.1764 88.8742 49.1028C88.8742 45.7732 91.4867 42.6143 95.1442 42.6143C95.3183 42.6143 95.4925 42.6143 95.6667 42.6143C89.0483 36.638 80.1658 32.9668 70.4125 32.9668C57.35 32.9668 45.855 39.5407 39.2367 49.4443C40.1075 49.4443 40.9783 49.5297 41.675 49.5297C45.5938 49.5297 51.6025 49.1028 51.6025 49.1028C53.6054 49.0174 53.8667 51.9202 51.8638 52.091C51.8638 52.091 49.8608 52.3471 47.5967 52.4325L61.1817 92.1322L69.3675 68.0563L63.3588 52.5179C61.3558 52.4325 59.44 52.1764 59.44 52.1764C57.4371 52.091 57.6983 49.0175 59.7013 49.1882C59.7013 49.1882 65.8842 49.6151 69.5417 49.6151C73.4604 49.6151 79.4692 49.1882 79.4692 49.1882C81.4721 49.1028 81.7333 52.0056 79.7304 52.1764C79.7304 52.1764 77.7275 52.4325 75.4633 52.5179L88.9613 91.8761L92.7058 79.6674C94.2733 74.6302 95.5796 70.959 95.5796 67.8001Z" fill="#F2F2F2"/>
<path d="M70.1211 72.9046L59.0916 104.669C62.4261 105.691 65.9316 106.117 69.4371 106.117C73.7121 106.117 77.816 105.351 81.578 104.073C81.4925 103.903 81.4071 103.733 81.3216 103.562L70.1211 72.9046ZM101.585 52.1255C101.756 53.3177 101.842 54.51 101.842 55.8725C101.842 59.6196 101.158 63.7073 99.0201 68.9872L87.9051 101.263C98.7636 94.876 106.117 83.1239 106.117 69.6685C106.117 63.537 104.578 57.4906 101.585 52.1255Z" fill="#F2F2F2"/>
<path d="M69.5417 26C45.5067 26 26 45.5067 26 69.5417C26 93.5767 45.5067 113.083 69.5417 113.083C93.5767 113.083 113.083 93.5767 113.083 69.5417C113.083 45.5067 93.5767 26 69.5417 26ZM69.5417 111.08C46.6388 111.08 28.0029 92.4446 28.0029 69.5417C28.0029 46.6388 46.6388 28.0029 69.5417 28.0029C92.4446 28.0029 111.08 46.6388 111.08 69.5417C111.08 92.4446 92.4446 111.08 69.5417 111.08Z" fill="#F2F2F2"/>
</svg>
