<svg width="100" height="100" viewBox="0 0 100 100" fill="none" xmlns="http://www.w3.org/2000/svg">
<path d="M12.9667 50.6397C12.9667 65.4731 21.5879 78.2995 34.0408 84.3201L16.1888 35.3701C14.0988 40.1691 12.9667 45.4044 12.9667 50.6397ZM75.5796 48.7201C75.5796 44.0956 73.925 40.8672 72.5317 38.424C70.6158 35.3701 68.8742 32.7525 68.8742 29.6113C68.8742 26.2084 71.4867 22.9799 75.1442 22.9799C75.3183 22.9799 75.4925 22.9799 75.6667 22.9799C69.0483 16.8721 60.1658 13.1201 50.4125 13.1201C37.35 13.1201 25.855 19.8387 19.2367 29.9603C20.1075 29.9603 20.9783 30.0476 21.675 30.0476C25.5938 30.0476 31.6025 29.6113 31.6025 29.6113C33.6054 29.524 33.8667 32.4907 31.8638 32.6652C31.8638 32.6652 29.8608 32.927 27.5967 33.0142L41.1817 73.5878L49.3675 48.9819L43.3588 33.1015C41.3558 33.0142 39.44 32.7525 39.44 32.7525C37.4371 32.6652 37.6983 29.524 39.7013 29.6985C39.7013 29.6985 45.8842 30.1348 49.5417 30.1348C53.4604 30.1348 59.4692 29.6985 59.4692 29.6985C61.4721 29.6113 61.7333 32.578 59.7304 32.7525C59.7304 32.7525 57.7275 33.0142 55.4633 33.1015L68.9613 73.326L72.7058 60.8485C74.2733 55.7005 75.5796 51.9485 75.5796 48.7201Z" fill="#F2F2F2"/>
<path d="M50.1211 53.9369L39.0916 86.4008C42.4261 87.4453 45.9316 87.8804 49.4371 87.8804C53.7121 87.8804 57.816 87.0971 61.578 85.7916C61.4925 85.6175 61.4071 85.4435 61.3216 85.2694L50.1211 53.9369ZM81.5851 32.7004C81.7561 33.9189 81.8416 35.1374 81.8416 36.53C81.8416 40.3595 81.1576 44.5372 79.0201 49.9333L67.9051 82.9195C78.7636 76.3919 86.1166 64.3811 86.1166 50.6296C86.1166 44.3631 84.5776 38.1836 81.5851 32.7004Z" fill="#F2F2F2"/>
<path d="M49.5417 6C25.5067 6 6 25.936 6 50.5C6 75.064 25.5067 95 49.5417 95C73.5767 95 93.0833 75.064 93.0833 50.5C93.0833 25.936 73.5767 6 49.5417 6ZM49.5417 92.953C26.6388 92.953 8.00292 73.907 8.00292 50.5C8.00292 27.093 26.6388 8.047 49.5417 8.047C72.4446 8.047 91.0804 27.093 91.0804 50.5C91.0804 73.907 72.4446 92.953 49.5417 92.953Z" fill="#F2F2F2"/>
</svg>
